<svg width="48" height="48" viewBox="0 0 48 48" fill="none" xmlns="http://www.w3.org/2000/svg">
<path d="M0 5C0 2.23858 2.23858 0 5 0H43C45.7614 0 48 2.23858 48 5V43C48 45.7614 45.7614 48 43 48H5C2.23858 48 0 45.7614 0 43V5Z" fill="#E2D9C6"/>
<path d="M5 7C5 5.89543 5.89543 5 7 5H42C43.1046 5 44 5.89543 44 7V19C44 20.1046 43.1046 21 42 21H7C5.89543 21 5 20.1046 5 19V7Z" fill="#92BA93"/>
<path d="M29 26C29 24.8954 29.8954 24 31 24H42C43.1046 24 44 24.8954 44 26V31C44 32.1046 43.1046 33 42 33H31C29.8954 33 29 32.1046 29 31V26Z" fill="#E69453"/>
<path d="M17 26C17 24.8954 17.8954 24 19 24H25C26.1046 24 27 24.8954 27 26V31C27 32.1046 26.1046 33 25 33H19C17.8954 33 17 32.1046 17 31V26Z" fill="#F7F8FA"/>
<path d="M17 36C17 34.8954 17.8954 34 19 34H25C26.1046 34 27 34.8954 27 36V41C27 42.1046 26.1046 43 25 43H19C17.8954 43 17 42.1046 17 41V36Z" fill="#F7F8FA"/>
<path d="M5 36C5 34.8954 5.89543 34 7 34H13C14.1046 34 15 34.8954 15 36V41C15 42.1046 14.1046 43 13 43H7C5.89543 43 5 42.1046 5 41V36Z" fill="#F7F8FA"/>
<path d="M5 26C5 24.8954 5.89543 24 7 24H13C14.1046 24 15 24.8954 15 26V31C15 32.1046 14.1046 33 13 33H7C5.89543 33 5 32.1046 5 31V26Z" fill="#F7F8FA"/>
<path d="M29 36C29 34.8954 29.8954 34 31 34H42C43.1046 34 44 34.8954 44 36V41C44 42.1046 43.1046 43 42 43H31C29.8954 43 29 42.1046 29 41V36Z" fill="#E69453"/>
</svg>
