<svg width="29" height="29" viewBox="0 0 29 29" fill="none" xmlns="http://www.w3.org/2000/svg">
<path d="M13.9986 0.000121977C13.7337 0.00426239 13.4813 0.113322 13.2968 0.303366C13.1122 0.49341 13.0106 0.748911 13.0142 1.01379V4.01379C13.0124 4.14631 13.0368 4.27787 13.0863 4.40084C13.1357 4.52381 13.209 4.63573 13.3021 4.7301C13.3951 4.82447 13.506 4.8994 13.6283 4.95055C13.7505 5.0017 13.8817 5.02804 14.0142 5.02804C14.1468 5.02804 14.278 5.0017 14.4002 4.95055C14.5225 4.8994 14.6334 4.82447 14.7264 4.7301C14.8194 4.63573 14.8928 4.52381 14.9422 4.40084C14.9916 4.27787 15.0161 4.14631 15.0142 4.01379V1.01379C15.0161 0.880004 14.991 0.747208 14.9406 0.623267C14.8902 0.499327 14.8154 0.386763 14.7207 0.292242C14.626 0.197721 14.5133 0.123164 14.3893 0.0729871C14.2652 0.0228099 14.1324 -0.00196763 13.9986 0.000121977ZM4.81112 3.81262C4.61235 3.81306 4.41822 3.87272 4.25351 3.98398C4.0888 4.09524 3.96098 4.25306 3.88637 4.43729C3.81175 4.62153 3.79373 4.82381 3.8346 5.01833C3.87546 5.21286 3.97336 5.39079 4.11581 5.52942L6.2369 7.65051C6.32904 7.74648 6.43941 7.8231 6.56154 7.87589C6.68367 7.92867 6.8151 7.95656 6.94814 7.95791C7.08118 7.95926 7.21315 7.93405 7.33633 7.88377C7.4595 7.83348 7.57141 7.75912 7.66549 7.66504C7.75956 7.57096 7.83392 7.45906 7.88421 7.33588C7.9345 7.2127 7.95971 7.08073 7.95836 6.94769C7.957 6.81465 7.92912 6.68322 7.87634 6.56109C7.82355 6.43896 7.74693 6.3286 7.65096 6.23645L5.52987 4.11536C5.43645 4.01933 5.32469 3.94304 5.20122 3.89104C5.07775 3.83904 4.94509 3.81237 4.81112 3.81262ZM23.1861 3.81262C22.9263 3.82036 22.6797 3.92894 22.4986 4.11536L20.3775 6.23645C20.2816 6.3286 20.2049 6.43896 20.1522 6.56109C20.0994 6.68322 20.0715 6.81465 20.0701 6.94769C20.0688 7.08073 20.094 7.2127 20.1443 7.33588C20.1946 7.45905 20.2689 7.57095 20.363 7.66503C20.4571 7.75911 20.569 7.83347 20.6922 7.88376C20.8153 7.93405 20.9473 7.95926 21.0803 7.9579C21.2134 7.95655 21.3448 7.92867 21.4669 7.87589C21.5891 7.8231 21.6994 7.74648 21.7916 7.65051L23.9127 5.52942C24.0572 5.38896 24.1559 5.20812 24.1958 5.0106C24.2358 4.81308 24.2152 4.60809 24.1366 4.42251C24.0581 4.23692 23.9253 4.07939 23.7557 3.97056C23.5861 3.86173 23.3876 3.80668 23.1861 3.81262ZM14.0142 7.01379C12.1577 7.01379 10.3772 7.75129 9.0645 9.06405C7.75174 10.3768 7.01424 12.1573 7.01424 14.0138C7.01424 15.8703 7.75174 17.6508 9.0645 18.9635C10.3772 20.2763 12.1577 21.0138 14.0142 21.0138C15.8708 21.0138 17.6512 20.2763 18.964 18.9635C20.2767 17.6508 21.0142 15.8703 21.0142 14.0138C21.0142 12.1573 20.2767 10.3768 18.964 9.06405C17.6512 7.75129 15.8708 7.01379 14.0142 7.01379ZM1.01424 13.0138C0.881731 13.0119 0.750168 13.0364 0.627199 13.0858C0.504231 13.1352 0.39231 13.2086 0.29794 13.3016C0.203571 13.3947 0.128635 13.5056 0.0774869 13.6278C0.0263392 13.7501 0 13.8813 0 14.0138C0 14.1463 0.0263392 14.2775 0.0774869 14.3998C0.128635 14.522 0.203571 14.6329 0.29794 14.726C0.39231 14.819 0.504231 14.8924 0.627199 14.9418C0.750168 14.9912 0.881731 15.0157 1.01424 15.0138H4.01424C4.14675 15.0157 4.27832 14.9912 4.40129 14.9418C4.52425 14.8924 4.63617 14.819 4.73054 14.726C4.82491 14.6329 4.89985 14.522 4.951 14.3998C5.00215 14.2775 5.02849 14.1463 5.02849 14.0138C5.02849 13.8813 5.00215 13.7501 4.951 13.6278C4.89985 13.5056 4.82491 13.3947 4.73054 13.3016C4.63617 13.2086 4.52425 13.1352 4.40129 13.0858C4.27832 13.0364 4.14675 13.0119 4.01424 13.0138H1.01424ZM24.0142 13.0138C23.8817 13.0119 23.7502 13.0364 23.6272 13.0858C23.5042 13.1352 23.3923 13.2086 23.2979 13.3016C23.2036 13.3947 23.1286 13.5056 23.0775 13.6278C23.0263 13.7501 23 13.8813 23 14.0138C23 14.1463 23.0263 14.2775 23.0775 14.3998C23.1286 14.522 23.2036 14.6329 23.2979 14.726C23.3923 14.819 23.5042 14.8924 23.6272 14.9418C23.7502 14.9912 23.8817 15.0157 24.0142 15.0138H27.0142C27.1468 15.0157 27.2783 14.9912 27.4013 14.9418C27.5243 14.8924 27.6362 14.819 27.7305 14.726C27.8249 14.6329 27.8999 14.522 27.951 14.3998C28.0021 14.2775 28.0285 14.1463 28.0285 14.0138C28.0285 13.8813 28.0021 13.7501 27.951 13.6278C27.8999 13.5056 27.8249 13.3947 27.7305 13.3016C27.6362 13.2086 27.5243 13.1352 27.4013 13.0858C27.2783 13.0364 27.1468 13.0119 27.0142 13.0138H24.0142ZM6.9244 20.0743C6.6646 20.0821 6.41802 20.1907 6.2369 20.3771L4.11581 22.4982C4.01983 22.5903 3.94321 22.7007 3.89043 22.8228C3.83765 22.9449 3.80977 23.0764 3.80841 23.2094C3.80706 23.3424 3.83227 23.4744 3.88256 23.5976C3.93285 23.7208 4.00721 23.8327 4.10128 23.9268C4.19536 24.0208 4.30726 24.0952 4.43044 24.1455C4.55362 24.1958 4.68559 24.221 4.81863 24.2196C4.95167 24.2183 5.0831 24.1904 5.20523 24.1376C5.32735 24.0848 5.43772 24.0082 5.52987 23.9122L7.65096 21.7911C7.79546 21.6507 7.89416 21.4698 7.93412 21.2723C7.97408 21.0748 7.95344 20.8698 7.8749 20.6842C7.79636 20.4986 7.66358 20.3411 7.49397 20.2323C7.32436 20.1235 7.12583 20.0684 6.9244 20.0743ZM21.0748 20.0743C20.8759 20.0744 20.6815 20.1338 20.5164 20.2449C20.3514 20.356 20.2233 20.5138 20.1485 20.6981C20.0736 20.8824 20.0554 21.0849 20.0962 21.2796C20.137 21.4743 20.235 21.6524 20.3775 21.7911L22.4986 23.9122C22.5908 24.0082 22.7011 24.0848 22.8233 24.1376C22.9454 24.1904 23.0768 24.2183 23.2099 24.2196C23.3429 24.221 23.4749 24.1958 23.598 24.1455C23.7212 24.0952 23.8331 24.0208 23.9272 23.9267C24.0213 23.8327 24.0956 23.7208 24.1459 23.5976C24.1962 23.4744 24.2214 23.3424 24.2201 23.2094C24.2187 23.0764 24.1908 22.9449 24.1381 22.8228C24.0853 22.7007 24.0086 22.5903 23.9127 22.4982L21.7916 20.3771C21.6984 20.2813 21.587 20.2051 21.4638 20.1531C21.3407 20.1011 21.2084 20.0743 21.0748 20.0743ZM13.9986 23.0001C13.7337 23.0043 13.4813 23.1133 13.2968 23.3034C13.1122 23.4934 13.0106 23.7489 13.0142 24.0138V27.0138C13.0124 27.1463 13.0368 27.2779 13.0863 27.4008C13.1357 27.5238 13.209 27.6357 13.3021 27.7301C13.3951 27.8245 13.506 27.8994 13.6283 27.9506C13.7505 28.0017 13.8817 28.028 14.0142 28.028C14.1468 28.028 14.278 28.0017 14.4002 27.9506C14.5225 27.8994 14.6334 27.8245 14.7264 27.7301C14.8194 27.6357 14.8928 27.5238 14.9422 27.4008C14.9916 27.2779 15.0161 27.1463 15.0142 27.0138V24.0138C15.0161 23.88 14.991 23.7472 14.9406 23.6233C14.8902 23.4993 14.8154 23.3868 14.7207 23.2922C14.626 23.1977 14.5133 23.1232 14.3893 23.073C14.2652 23.0228 14.1324 22.998 13.9986 23.0001Z" fill="#FFD000"/>
</svg>
